<svg width="1024" height="227" xmlns="http://www.w3.org/2000/svg" xmlns:xlink="http://www.w3.org/1999/xlink"><defs><linearGradient x1="89.922%" y1="12.083%" x2="-55.572%" y2="154.995%" id="c"><stop stop-color="#FF9613" offset="0%"/><stop stop-color="#E338A1" offset="24.887%"/><stop stop-color="#992AA2" offset="49.829%"/><stop stop-color="#650A91" offset="75.002%"/><stop stop-color="#4B1375" offset="100%"/></linearGradient><path d="M258.372 0H1.116L0 164.268h.103l.188-.335c.178-.312.359-.622.544-.93l.28-.46c4.491-7.276 10.722-12.965 18.53-16.953 7.65-3.908 16.23-5.842 25.616-5.842 9.378 0 17.971 1.93 25.658 5.83a50.235 50.235 0 0 1 4.031 2.28l.212.134v-27.886h101.79l-.001 29.007.172-.13a42.828 42.828 0 0 1 4.326-2.842l.35-.198c6.91-3.884 14.589-5.825 22.87-5.825 3.74 0 7.275.391 10.582 1.179l.122.03h33.22c1.608-6.805 4.862-12.7 9.779-17.494 4.924-4.8 4.924-46.078 0-123.833z" id="a"/></defs><g fill="none" fill-rule="evenodd"><g transform="translate(299.91 .174)"><mask id="b" fill="#fff"><use xlink:href="#a"/></mask><g mask="url(#b)" fill="url(#c)" fill-rule="nonzero"><path d="m81.434 40.493-12.202-.918-2.394 13.951c-1.28 7.52-2.156 13.073-2.926 18.503l-.19 1.354-.248 1.806-.67 5.077-.421-.045c-3.916-.404-7.901-.587-11.938-.572-6.923.025-13.399.616-19.453 1.557l-14.817 2.302 3.88 14.496c.118.437.232.869.344 1.297l.143.55.234.914.377 1.507.252 1.039c.81 3.367 1.644 7.195 2.858 12.988l1.103 5.28.69 3.26c3.485 16.33 5.81 24.946 9.843 35.166l.336.843c6.448 16.051 15.515 29.487 28.5 40.92l.352.309-.135-.121c21.163 19.194 54.594 29.528 100.135 31.842l3.97.202 3.443-1.99c33.279-19.23 56.224-40.32 68.552-63.625l.527-1.009.141-.31c5.94-13.02 8.61-27.598 8.204-43.086-.37-14.152-2.275-25.829-5.951-38.719l-.386-1.338-.341-1.165-.277-.93-.314-1.04-.425-1.372c-.63-2.008-1.398-4.349-2.624-8.03l-2.566-7.683-.684-2.07c-2.547-7.739-4.247-13.329-6.037-20.017l-3.504-13.087-13.055 3.581-.916.255c-24.072 6.783-43.124 19.31-56.737 37.378l-.489.654-.554-.43c-22.818-17.594-47.422-27.502-73.63-29.474zm126.894 21.926.55 1.746.422 1.32a713.71 713.71 0 0 0 2.519 7.69l3.043 9.124.755 2.295c.325.998.602 1.859.852 2.652l.43 1.385.324 1.07.194.65.295 1.008c.068.23.136.467.206.71 3.191 11.04 4.782 20.618 5.096 32.616l.012.533c.227 11.168-1.64 21.363-5.603 30.236l-.05.11-.132.251c-9.171 17.314-27.054 34.19-53.89 50.322l-.88.526-.75-.047c-37.008-2.425-63.04-10.736-78.234-24.215l-.556-.5-.1-.087c-9.939-8.662-16.77-18.795-21.783-31.425l-.226-.573c-3.62-9.239-5.723-17.524-9.484-35.557l-1.083-5.177c-.153-.726-.3-1.423-.443-2.092l-.092-.428.072-.001c7.173-.092 14.264.654 20.841 2.533l15.014 4.288 2.577-19.755 1.597-12.353.233-1.764.236-1.732.096-.689c.298-2.144.61-4.287.958-6.56l.23-1.503.38.077c20.192 4.124 39.354 14.55 57.662 31.52l12.949 12.003 8.14-15.673.307-.585c8.155-15.403 20.248-26.562 36.7-33.684l.616-.265zm-47.98-38.691c6.757 4.652 8.394 13.818 3.656 20.472-4.739 6.654-14.058 8.276-20.816 3.623-6.758-4.652-8.395-13.818-3.656-20.472 4.738-6.654 14.058-8.276 20.815-3.623zM192.87 2.645c6.647 4.636 8.257 13.77 3.597 20.4-4.661 6.63-13.828 8.247-20.475 3.611-6.647-4.636-8.257-13.77-3.597-20.4 4.661-6.63 13.828-8.247 20.475-3.611z"/></g></g><g fill="#650A91"><path d="M503.176 150.587c8.595 0 15.355 2.507 20.28 7.522v-6.313h25.517v72.795h-24.309v-7.253c-4.745 5.641-11.908 8.462-21.488 8.462-6.625 0-12.647-1.545-18.063-4.634-5.417-3.089-9.715-7.499-12.893-13.23-3.179-5.73-5.703-12.355-5.703-19.877 0-7.521 2.524-14.124 5.703-19.81 3.178-5.686 7.476-10.05 12.893-13.095 5.416-3.045 11.438-4.567 18.063-4.567zm-37.537-20.012v16.655l-47.385 56.275h49.398v21.086h-84.164v-16.654l47.384-56.275h-47.384v-21.087h82.15zm42.91 40.293c-4.478 0-8.148 1.522-11.014 4.566-2.865 3.045-4.297 7.253-4.297 12.625 0 5.462 1.432 9.738 4.297 12.827 2.866 3.089 6.536 4.633 11.013 4.633s8.148-1.544 11.013-4.633c2.865-3.09 4.298-7.365 4.298-12.827 0-5.372-1.433-9.58-4.298-12.625-2.865-3.044-6.536-4.566-11.013-4.566zm174-20.28c7.252 0 13.833 1.5 19.742 4.499 5.91 3 10.587 7.342 14.034 13.028 3.387 5.585 5.11 12.187 5.17 19.804v.454c-.014.365-.148 2.454-.402 6.267h-52.915c1.075 3.761 3.156 6.649 6.245 8.663 3.09 2.015 6.962 3.022 11.617 3.022 3.492 0 6.514-.492 9.066-1.477 2.552-.985 5.126-2.597 7.722-4.835l13.43 13.968c-7.073 7.88-17.414 11.819-31.023 11.819-8.506 0-15.982-1.612-22.429-4.835-6.446-3.224-11.438-7.7-14.974-13.431-3.537-5.73-5.305-12.222-5.305-19.475 0-7.163 1.723-13.587 5.17-19.273s8.215-10.14 14.303-13.364c6.089-3.223 12.938-4.835 20.549-4.835zm-97.394-26.862c3.224 0 6.357.313 9.401.94 3.045.627 5.552 1.567 7.521 2.82l-5.377 17.998c-2.507-1.433-5.058-2.15-7.655-2.15-2.686 0-4.768.806-6.245 2.418-1.477 1.612-2.216 3.985-2.216 7.119v1.611h17.325v19.072h-16.653v51.037h-25.518v-71.99c0-8.863 2.664-15.892 7.991-21.085 5.328-5.194 11.846-7.79 21.426-7.79zm45.924 0c3.223 0 6.357.313 9.4.94 3.045.627 5.552 1.567 7.522 2.82l-5.377 17.998c-2.507-1.433-5.059-2.15-7.655-2.15-2.686 0-4.768.806-6.245 2.418-1.478 1.612-2.216 3.985-2.216 7.119v1.611h17.325v19.072h-16.654v51.037h-25.517v-71.99c0-8.863 2.663-15.892 7.99-21.085 5.328-5.194 11.847-7.79 21.427-7.79zm51.604 44.993c-3.94 0-7.23 1.12-9.871 3.358-2.642 2.238-4.32 5.282-5.037 9.133h29.815c-.716-3.85-2.395-6.895-5.036-9.133-2.641-2.239-5.932-3.358-9.871-3.358zm125.827-18.132c8.595 0 15.355 2.507 20.28 7.522v-6.313h25.517v72.795h-24.309v-7.253c-4.745 5.641-11.908 8.462-21.488 8.462-6.625 0-12.647-1.545-18.063-4.634-5.417-3.089-9.715-7.499-12.893-13.23-3.179-5.73-4.768-12.355-4.768-19.877 0-7.521 1.59-14.124 4.768-19.81 3.178-5.686 7.476-10.05 12.893-13.095 5.416-3.045 11.438-4.567 18.063-4.567zm-34.2 0v22.967l-.654-.073c-2.037-.22-3.744-.33-5.12-.33-5.462 0-9.738 1.477-12.827 4.432-3.089 2.955-4.633 7.477-4.633 13.565v33.443h-25.517v-72.795h24.308v8.73c2.597-3.313 5.977-5.798 10.14-7.454 4.163-1.656 8.931-2.485 14.303-2.485zm39.572 20.28c-4.476 0-8.147 1.523-11.012 4.567-2.866 3.045-4.298 7.253-4.298 12.625 0 5.462 1.432 9.738 4.298 12.827 2.865 3.089 6.536 4.633 11.012 4.633 4.477 0 8.148-1.544 11.013-4.633 2.865-3.09 4.298-7.365 4.298-12.827 0-5.372-1.433-9.58-4.298-12.625-2.865-3.044-6.536-4.566-11.013-4.566zm94.133-20.28c9.043 0 16.318 2.686 21.824 8.059 5.506 5.372 8.26 13.475 8.26 24.31v41.635H912.58V187.12c0-9.939-3.984-14.908-11.953-14.908-4.387 0-7.901 1.433-10.542 4.298-2.642 2.865-3.962 7.163-3.962 12.893v35.19h-25.517v-72.796h24.308v7.924c2.865-2.955 6.268-5.215 10.207-6.782 3.94-1.567 8.237-2.35 12.893-2.35zm74.86 75.027c-7.79 0-14.818-1.611-21.086-4.835-6.267-3.223-11.17-7.7-14.706-13.43-3.536-5.731-5.305-12.223-5.305-19.475 0-7.163 1.769-13.61 5.305-19.34 3.537-5.731 8.416-10.186 14.639-13.364 6.223-3.179 13.273-4.768 21.152-4.768 7.88 0 14.953 1.589 21.22 4.768 6.267 3.178 11.147 7.61 14.639 13.296 3.492 5.686 5.238 12.155 5.238 19.408 0 7.252-1.746 13.744-5.238 19.474-3.492 5.73-8.372 10.208-14.639 13.431-6.267 3.224-13.34 4.835-21.22 4.835zm.101-20.095c4.477 0 8.148-1.544 11.013-4.633 2.865-3.09 4.297-7.365 4.297-12.827 0-5.372-1.432-9.58-4.297-12.625-2.865-3.044-6.536-4.566-11.013-4.566s-8.148 1.522-11.013 4.566c-2.865 3.045-4.297 7.253-4.297 12.625 0 5.462 1.432 9.738 4.297 12.827 2.865 3.089 6.536 4.633 11.013 4.633z"/><path d="M91.397 214.148c-5.372 3.85-11.55 6.805-18.533 8.865-6.984 2.06-13.968 3.089-20.951 3.089-9.85 0-18.713-2.082-26.592-6.246-7.88-4.163-14.057-9.96-18.534-17.392-4.476-7.432-6.715-15.849-6.715-25.25 0-9.402 2.239-17.819 6.715-25.25 4.477-7.432 10.7-13.23 18.668-17.393 7.969-4.164 16.967-6.246 26.995-6.246 8.774 0 16.653 1.478 23.637 4.433 6.984 2.954 12.803 7.207 17.46 12.759l-16.923 15.311c-6.357-6.984-13.967-10.476-22.831-10.476-8.058 0-14.55 2.44-19.474 7.32-4.924 4.88-7.386 11.394-7.386 19.542 0 5.193 1.119 9.826 3.357 13.9 2.238 4.075 5.372 7.253 9.401 9.536 4.03 2.284 8.64 3.425 13.833 3.425 5.104 0 9.894-1.03 14.37-3.089V190.32H52.13v-20.892h39.267v44.721zm8.6-62.722h25.517v72.795H99.997v-72.795zm12.759-8.058c-4.656 0-8.417-1.298-11.282-3.895s-4.297-5.82-4.297-9.67c0-3.85 1.432-7.074 4.297-9.67 2.865-2.597 6.626-3.895 11.282-3.895 4.655 0 8.416 1.23 11.281 3.693 2.865 2.462 4.298 5.619 4.298 9.469 0 4.03-1.433 7.364-4.298 10.006-2.865 2.641-6.626 3.962-11.281 3.962zm100.832 8.058v72.795H189.28v-7.252c-4.745 5.64-11.908 8.461-21.488 8.461-6.626 0-12.647-1.544-18.064-4.633-5.417-3.09-9.714-7.5-12.893-13.23-3.178-5.73-4.768-12.356-4.768-19.877 0-7.522 1.59-14.125 4.768-19.81 3.179-5.687 7.476-10.052 12.893-13.096 5.417-3.044 11.438-4.566 18.064-4.566 8.595 0 15.355 2.507 20.28 7.52v-6.312h25.516zm-40.424 53.724c4.476 0 8.147-1.545 11.012-4.634 2.865-3.089 4.298-7.365 4.298-12.826 0-5.373-1.433-9.581-4.298-12.625-2.865-3.045-6.536-4.567-11.012-4.567-4.477 0-8.148 1.522-11.013 4.567-2.865 3.044-4.298 7.252-4.298 12.625 0 5.461 1.433 9.737 4.298 12.826 2.865 3.09 6.536 4.634 11.013 4.634zm76.654 20.28c-8.953 0-15.914-2.305-20.883-6.917-4.97-4.61-7.454-11.214-7.454-19.81v-74.138h25.517v72.795c0 2.686.694 4.745 2.082 6.178 1.388 1.433 3.335 2.149 5.842 2.149 2.06 0 3.984-.448 5.775-1.343l1.074 19.206a38.364 38.364 0 0 1-11.953 1.88zm38.87-100.865v72.795c0 2.686.694 4.745 2.081 6.178 1.388 1.433 3.336 2.149 5.843 2.149 2.059 0 3.984-.448 5.775-1.343l1.074 19.206a38.364 38.364 0 0 1-11.953 1.88c-8.953 0-15.915-2.305-20.884-6.917-4.969-4.61-7.453-11.214-7.453-19.81v-74.138h25.517zm55.08 25.653c7.879 0 14.952 1.589 21.22 4.768 6.267 3.178 11.146 7.61 14.638 13.296 3.492 5.686 5.238 12.155 5.238 19.408 0 7.252-1.746 13.744-5.238 19.474-3.492 5.73-8.371 10.208-14.639 13.431-6.267 3.224-13.34 4.835-21.22 4.835-7.789 0-14.817-1.611-21.085-4.835-6.267-3.223-11.17-7.7-14.706-13.43-3.536-5.731-5.305-12.223-5.305-19.475 0-7.163 1.769-13.61 5.305-19.34 3.537-5.731 8.416-10.186 14.64-13.364 6.222-3.18 13.273-4.768 21.152-4.768zm0 20.28c-4.477 0-8.148 1.522-11.013 4.567-2.865 3.044-4.298 7.252-4.298 12.625 0 5.461 1.433 9.737 4.298 12.826 2.865 3.09 6.536 4.634 11.013 4.634 4.476 0 8.147-1.545 11.012-4.634 2.865-3.089 4.298-7.365 4.298-12.826 0-5.373-1.433-9.581-4.298-12.625-2.865-3.045-6.536-4.567-11.012-4.567z"/></g></g></svg>